<svg xmlns="http://www.w3.org/2000/svg" viewBox="0 0 64 64" width="64" height="64">
  <!-- Background -->
  <circle cx="32" cy="32" r="32" fill="#1B4D3E"/>
  
  <!-- Tree trunk -->
  <rect x="28" y="38" width="8" height="14" fill="#8B4513" rx="1"/>
  
  <!-- Tree foliage -->
  <path d="M 32,16 L 20,32 L 44,32 Z" fill="#52b788"/>
  <path d="M 32,20 L 22,34 L 42,34 Z" fill="#74c69d"/>
  <path d="M 32,24 L 24,36 L 40,36 Z" fill="#95d5b2"/>
  
  <!-- Flame accent -->
  <g transform="translate(44, 24)" opacity="0.9">
    <path d="M 0,-4 Q -1.5,-2.5 -1.5,0 Q -1.5,2 0,3 Q 1.5,2 1.5,0 Q 1.5,-2.5 0,-4 Z" fill="#E74C3C"/>
    <path d="M 0,-3 Q -0.8,-2 -0.8,0 Q -0.8,1 0,1.5 Q 0.8,1 0.8,0 Q 0.8,-2 0,-3 Z" fill="#F39C12"/>
  </g>
  
  <!-- Shield outline -->
  <path d="M 32,12 L 48,20 L 48,36 Q 48,46 32,52 Q 16,46 16,36 L 16,20 Z" 
        fill="none" stroke="#F39C12" stroke-width="2" opacity="0.6"/>
</svg>
